<svg xmlns="http://www.w3.org/2000/svg" shape-rendering="geometricPrecision" text-rendering="geometricPrecision" image-rendering="optimizeQuality" fill-rule="evenodd" clip-rule="evenodd" viewBox="0 0 493 511.798"><path fill-rule="nonzero" d="M189.482 96.311c.074-2.678.194-5.323.194-8.01 0-27.797-5.318-48.782-15.94-62.955-10.631-14.169-29.568-21.254-56.828-21.254-31.062 0-54.771 12.81-71.127 38.424-16.352 25.609-27.251 60.773-32.703 105.467-2.724 23.441-5.041 49.466-6.95 78.082a3073.329 3073.329 0 00-4.496 85.43C.546 339.842 0 365.451 0 388.351c0 44.694 8.444 76.44 25.342 95.247 16.897 18.807 41.97 28.2 75.224 28.2 27.251 0 48.911-8.445 64.995-25.342 16.078-16.897 25.748-44.967 29.022-84.209 1.091-13.078 2.039-29.29 2.862-48.643l2.456-58.452c.813-19.63 2.039-35.986 3.671-49.059 3.279-25.619 10.086-45.518 20.445-59.682 10.353-14.178 22.894-21.263 37.605-21.263 26.705 0 40.06 22.35 40.06 67.044 0 14.174-.684 32.162-2.039 53.961a6398.292 6398.292 0 01-4.495 66.225c-1.642 22.34-2.456 41.693-2.456 58.045 0 29.429 6.673 52.468 20.028 69.088 13.356 16.619 32.57 24.934 57.643 24.934 22.349 0 41.693-5.041 58.044-15.126 16.357-10.086 28.888-25.203 37.61-45.379 5.998-13.073 10.909-29.831 14.719-50.276 3.811-20.439 6.812-43.2 8.99-68.273 2.187-25.064 3.274-50.415 3.274-76.033 0-50.683-6.137-94.702-18.401-132.034-12.258-37.337-30.659-66.225-55.177-86.665C394.89 10.22 364.097 0 327.033 0 297.049 0 268.701 9.951 242 29.836c-34.252 25.517-31.426 38.308-52.518 66.475zM67.238 76.042c1.84-4.707 7.158-7.038 11.866-5.197 4.707 1.84 7.038 7.158 5.198 11.866-4.481 11.496-8.356 24.573-11.626 39.214-3.283 14.714-6.021 31.302-8.194 49.721-.592 5.027-5.156 8.619-10.183 8.027-5.027-.591-8.62-5.155-8.028-10.182 2.202-18.655 5.059-35.839 8.555-51.506 3.515-15.755 7.654-29.739 12.412-41.943zM42.211 196.747a9.16 9.16 0 0118.137 2.58l-.81 5.669a9.16 9.16 0 11-18.136-2.58l.809-5.669z"/></svg>